<mxfile host="65bd71144e">
    <diagram id="hLKYGfaXL3Q-xC6W0wQX" name="Page-1">
        <mxGraphModel dx="912" dy="562" grid="1" gridSize="10" guides="1" tooltips="1" connect="1" arrows="1" fold="1" page="1" pageScale="1" pageWidth="827" pageHeight="1169" math="0" shadow="0">
            <root>
                <mxCell id="0"/>
                <mxCell id="1" parent="0"/>
                <mxCell id="2" value="&lt;font style=&quot;font-size: 36px&quot;&gt;Cookie clicker&lt;/font&gt;" style="text;html=1;align=center;verticalAlign=middle;resizable=0;points=[];autosize=1;strokeColor=none;fillColor=none;" vertex="1" parent="1">
                    <mxGeometry x="260" y="55" width="240" height="30" as="geometry"/>
                </mxCell>
                <mxCell id="3" value="" style="ellipse;whiteSpace=wrap;html=1;aspect=fixed;fontSize=36;strokeColor=#000000;fillColor=#994C00;" vertex="1" parent="1">
                    <mxGeometry x="330" y="140" width="120" height="120" as="geometry"/>
                </mxCell>
                <mxCell id="4" value="" style="ellipse;whiteSpace=wrap;html=1;aspect=fixed;fontSize=36;strokeColor=#000000;fillColor=#000000;" vertex="1" parent="1">
                    <mxGeometry x="359" y="150" width="30" height="30" as="geometry"/>
                </mxCell>
                <mxCell id="5" value="" style="ellipse;whiteSpace=wrap;html=1;aspect=fixed;fontSize=36;strokeColor=#000000;fillColor=#000000;" vertex="1" parent="1">
                    <mxGeometry x="410" y="180" width="30" height="30" as="geometry"/>
                </mxCell>
                <mxCell id="6" value="" style="ellipse;whiteSpace=wrap;html=1;aspect=fixed;fontSize=36;strokeColor=#000000;fillColor=#000000;" vertex="1" parent="1">
                    <mxGeometry x="389" y="210" width="30" height="30" as="geometry"/>
                </mxCell>
                <mxCell id="7" value="" style="ellipse;whiteSpace=wrap;html=1;aspect=fixed;fontSize=36;strokeColor=#000000;fillColor=#000000;" vertex="1" parent="1">
                    <mxGeometry x="343.5" y="200" width="30" height="30" as="geometry"/>
                </mxCell>
                <mxCell id="9" value="&lt;font size=&quot;3&quot;&gt;Cookies: 7&lt;/font&gt;" style="text;html=1;align=center;verticalAlign=middle;resizable=0;points=[];autosize=1;strokeColor=none;fillColor=none;fontSize=36;" vertex="1" parent="1">
                    <mxGeometry x="335" y="70" width="90" height="60" as="geometry"/>
                </mxCell>
                <mxCell id="11" value="&lt;font color=&quot;#000000&quot;&gt;Rest cookies&lt;/font&gt;" style="labelPosition=center;verticalLabelPosition=middle;align=center;html=1;shape=mxgraph.basic.shaded_button;dx=10;fillColor=#6666FF;strokeColor=none;fontSize=12;" vertex="1" parent="1">
                    <mxGeometry x="340" y="290" width="100" height="60" as="geometry"/>
                </mxCell>
                <mxCell id="12" value="" style="verticalLabelPosition=bottom;verticalAlign=top;html=1;shape=mxgraph.basic.rect;fillColor2=none;strokeWidth=1;size=20;indent=5;labelBackgroundColor=#3333FF;fontSize=12;fontColor=#000000;fillColor=none;strokeColor=#000000;" vertex="1" parent="1">
                    <mxGeometry x="80" y="20" width="600" height="360" as="geometry"/>
                </mxCell>
            </root>
        </mxGraphModel>
    </diagram>
</mxfile>